<?xml version="1.0" encoding="UTF-8" standalone="no"?>
<!-- Created with Inkscape (http://www.inkscape.org/) -->

<svg
   xmlns:dc="http://purl.org/dc/elements/1.1/"
   xmlns:cc="http://creativecommons.org/ns#"
   xmlns:rdf="http://www.w3.org/1999/02/22-rdf-syntax-ns#"
   xmlns:svg="http://www.w3.org/2000/svg"
   xmlns="http://www.w3.org/2000/svg"
   xmlns:sodipodi="http://sodipodi.sourceforge.net/DTD/sodipodi-0.dtd"
   xmlns:inkscape="http://www.inkscape.org/namespaces/inkscape"
   inkscape:export-ydpi="150"
   inkscape:export-xdpi="150"
   inkscape:export-filename="C:\Users\ash\OneDrive\VELODAY_\VELODAY_SILVER.png"
   sodipodi:docname="VELODAY_VECTOR_SILVER.svg"
   inkscape:version="0.91 r13725"
   version="1.1"
   id="svg3336"
   viewBox="0 0 299.99999 300"
   height="300"
   width="300">
  <sodipodi:namedview
     inkscape:object-nodes="true"
     inkscape:snap-others="false"
     inkscape:snap-page="true"
     inkscape:snap-center="false"
     inkscape:snap-object-midpoints="false"
     inkscape:bbox-nodes="true"
     inkscape:snap-bbox-midpoints="true"
     inkscape:snap-bbox="true"
     inkscape:guide-bbox="true"
     showguides="false"
     units="px"
     inkscape:window-maximized="1"
     inkscape:window-y="-8"
     inkscape:window-x="-8"
     inkscape:window-height="715"
     inkscape:window-width="1366"
     borderlayer="false"
     showborder="true"
     showgrid="false"
     inkscape:current-layer="layer3"
     inkscape:document-units="px"
     inkscape:cy="206.81471"
     inkscape:cx="76.931434"
     inkscape:zoom="2.0000001"
     inkscape:pageshadow="2"
     inkscape:pageopacity="0.0"
     borderopacity="1.0"
     bordercolor="#666666"
     pagecolor="#ffffff"
     id="base"
     inkscape:snap-midpoints="true"
     inkscape:snap-global="false"
     inkscape:snap-nodes="true"
     fit-margin-top="0"
     fit-margin-left="0"
     fit-margin-right="0"
     fit-margin-bottom="0">
    <sodipodi:guide
       inkscape:color="rgb(0,0,255)"
       inkscape:label=""
       position="150,130.5"
       orientation="1,0"
       id="guide5642" />
    <sodipodi:guide
       inkscape:color="rgb(0,0,255)"
       inkscape:label=""
       position="-34.850254,150"
       orientation="0,1"
       id="guide5644" />
  </sodipodi:namedview>
  <defs
     id="defs3338">
    <clipPath
       id="clipPath4313"
       clipPathUnits="userSpaceOnUse">
      <path
         inkscape:connector-curvature="0"
         id="path4315"
         d="m 0,1680.169 1839.184,0 L 1839.184,0 0,0 0,1680.169 Z" />
    </clipPath>
  </defs>
  <metadata
     id="metadata3341">
    <rdf:RDF>
      <cc:Work
         rdf:about="">
        <dc:format>image/svg+xml</dc:format>
        <dc:type
           rdf:resource="http://purl.org/dc/dcmitype/StillImage" />
        <dc:title />
      </cc:Work>
    </rdf:RDF>
  </metadata>
  <g
     inkscape:groupmode="layer"
     id="layer3"
     inkscape:label="FON"
     style="display:inline"
     transform="translate(7.0710754,40.403567)">
    <rect
       style="display:inline;fill:#f2f2f2;fill-opacity:1;fill-rule:nonzero;stroke:none;stroke-width:2;stroke-linecap:butt;stroke-linejoin:bevel;stroke-miterlimit:4;stroke-dasharray:none;stroke-opacity:1"
       id="rect5303"
       width="300"
       height="300"
       x="-7.0710754"
       y="-40.403557" />
    <circle
       style="fill:#333333;fill-opacity:1;fill-rule:nonzero;stroke:none;stroke-width:2;stroke-linecap:butt;stroke-linejoin:bevel;stroke-miterlimit:4;stroke-dasharray:none;stroke-opacity:1"
       id="path4195"
       cx="142.92892"
       cy="109.59644"
       r="132.9361" />
  </g>
  <g
     style="display:inline"
     inkscape:groupmode="layer"
     id="layer4"
     inkscape:label="INGRESS DAY 2016"
     transform="translate(7.0710754,40.403567)">
    <g
       transform="matrix(1.2335206,0,0,1.2516062,-10.210981,-51.147218)"
       id="g5637"
       style="fill:#2ad4ff;stroke:none;fill-opacity:1">
      <path
         sodipodi:nodetypes="ccccccc"
         inkscape:connector-curvature="0"
         id="path3363"
         d="m 170.87181,173.46567 5.4438,-30 11.99307,28.88524 -4.15945,0.12812 -7.20599,-20.44194 -1.84699,21.13271 z"
         style="fill:#2ad4ff;fill-rule:evenodd;stroke:none;stroke-width:1px;stroke-linecap:butt;stroke-linejoin:miter;stroke-opacity:1;fill-opacity:1" />
      <path
         sodipodi:nodetypes="cccccccccc"
         inkscape:connector-curvature="0"
         id="path3365"
         d="m 189.59895,144.27543 7.88694,13.23983 0.34164,15.1292 3.55729,-0.0655 -0.77235,-15.017 7.04794,-13.68881 -3.26758,-0.57055 -5.25071,11.07451 -6.40185,-10.4244 z"
         style="fill:#2ad4ff;fill-rule:evenodd;stroke:none;stroke-width:0.92291337px;stroke-linecap:butt;stroke-linejoin:miter;stroke-opacity:1;fill-opacity:1" />
      <path
         d="m 156.56249,149.41965 -0.34313,20.38909 c 0,0 12.05266,-2.36246 9.73048,-11.42805 -1.78406,-6.96481 -9.38735,-8.96104 -9.38735,-8.96104 z m -4.0625,24.86606 L 153.57142,145 c 0,0 18.21428,4.64286 16.07143,17.14286 -2.14286,12.5 -17.14286,12.14285 -17.14286,12.14285 z"
         style="fill:#2ad4ff;fill-rule:evenodd;stroke:none;stroke-width:1px;stroke-linecap:butt;stroke-linejoin:miter;stroke-opacity:1;fill-opacity:1"
         id="path3367"
         inkscape:connector-curvature="0" />
    </g>
    <text
       xml:space="preserve"
       style="font-style:normal;font-weight:normal;font-size:40px;line-height:125%;font-family:sans-serif;letter-spacing:0px;word-spacing:0px;fill:#2ad4ff;fill-opacity:1;stroke:none;stroke-width:0.5;stroke-linecap:butt;stroke-linejoin:miter;stroke-miterlimit:4;stroke-dasharray:none;stroke-opacity:1;"
       x="120.01145"
       y="187.58774"
       id="text3369"
       sodipodi:linespacing="125%"><tspan
         sodipodi:role="line"
         id="tspan3371"
         x="120.01145"
         y="187.58774"
         style="font-style:normal;font-variant:normal;font-weight:normal;font-stretch:normal;font-size:22.5px;font-family:Coda;-inkscape-font-specification:Coda;fill:#2ad4ff;stroke:none;stroke-width:0.5;stroke-miterlimit:4;stroke-dasharray:none;stroke-opacity:1;fill-opacity:1;">2016</tspan></text>
  </g>
  <g
     style="display:inline"
     inkscape:label="VELO"
     id="layer6"
     inkscape:groupmode="layer"
     transform="translate(7.0710754,40.403567)">
    <g
       id="g5631"
       style="display:inline;fill:#2ad4ff;stroke:none;fill-opacity:1"
       transform="matrix(1.1579806,-0.03261007,0.03261007,1.1579806,-0.34805814,-26.497587)">
      <path
         sodipodi:nodetypes="ccccccc"
         inkscape:connector-curvature="0"
         id="path3370"
         d="m 140.71615,864.20925 2.03826,37.5 17.5,-2.5 0.71428,-6.78571 -13.57143,1.07143 0,-33.21429 z"
         style="fill:#2ad4ff;fill-rule:evenodd;stroke:none;stroke-width:1px;stroke-linecap:butt;stroke-linejoin:miter;stroke-opacity:1;fill-opacity:1"
         transform="translate(1.5258789e-5,-802.36214)" />
      <path
         d="m 167.37178,72.824088 0.0939,18.781998 10.93716,2.522124 1.06917,-21.067693 z m -4.12673,-6.703851 21.3767,1.420866 -0.31356,31.815525 -22.23928,-2.98026 z"
         style="fill:#2ad4ff;fill-rule:evenodd;stroke:none;stroke-width:1.01159012px;stroke-linecap:butt;stroke-linejoin:miter;stroke-opacity:1;fill-opacity:1"
         id="path3374"
         transform="translate(7.6293945e-6,0)"
         inkscape:connector-curvature="0" />
      <path
         inkscape:connector-curvature="0"
         id="path3360"
         d="M 39.470192,75.737392 76.940967,160.60218 94.039605,157.84772 101.9472,66.088423 90.79022,65.372012 83.434113,144.01688 49.389226,73.974229 Z"
         style="fill:#2ad4ff;fill-rule:evenodd;stroke:none;stroke-width:0.80265546px;stroke-linecap:butt;stroke-linejoin:miter;stroke-opacity:1;fill-opacity:1"
         sodipodi:nodetypes="cccccccc" />
      <path
         d="m 116.55138,69.497504 -0.74738,7.542265 10.05841,-0.304979 0.62628,-6.744051 z m 0.16486,12.574842 18.83179,-0.663185 2.11945,-17.018824 -30.62971,1.173795 4.73454,38.079618 27.455,0.65485 -5.18573,-8.097598 -16.54549,2.463423 z"
         style="fill:#2ad4ff;fill-rule:evenodd;stroke:none;stroke-width:1px;stroke-linecap:butt;stroke-linejoin:miter;stroke-opacity:1;fill-opacity:1"
         id="path3364"
         inkscape:connector-curvature="0"
         sodipodi:nodetypes="cccccccccccccc" />
    </g>
  </g>
  <g
     style="display:inline"
     inkscape:groupmode="layer"
     id="layer2"
     inkscape:label="V"
     transform="translate(7.0710754,40.403567)">
    <g
       id="flowRoot3341"
       style="font-style:normal;font-weight:normal;font-size:125px;line-height:125%;font-family:sans-serif;letter-spacing:0px;word-spacing:0px;fill:#ff7f2a;fill-opacity:1;stroke:#000000;stroke-width:0;stroke-linecap:butt;stroke-linejoin:miter;stroke-miterlimit:4;stroke-dasharray:none;stroke-opacity:1"
       transform="matrix(1.1350384,-0.33177103,0.33451038,1.1278425,-345.84537,-193.23746)">
      <path
         inkscape:connector-curvature="0"
         id="path7932"
         style="font-style:normal;font-variant:normal;font-weight:normal;font-stretch:normal;font-size:80px;font-family:BIKES;-inkscape-font-specification:BIKES;fill:#ff7f2a;fill-opacity:1;stroke:#000000;stroke-width:0;stroke-miterlimit:4;stroke-dasharray:none;stroke-opacity:1"
         d="m 352.23107,330.62349 q -0.65448,0.002 -0.81741,0.24775 -0.16316,0.16408 -0.57221,0.16524 -0.24543,7e-4 -0.73699,-0.24333 -0.40974,-0.24427 -0.41043,-0.48969 -4.6e-4,-0.16362 0.40744,-0.57383 l -0.41043,-0.48969 q -0.24474,0.24613 -0.65379,0.24729 -0.40906,10e-4 -0.81811,0.002 -0.32747,-0.0809 -0.73653,-0.0797 -0.32724,9.3e-4 -0.73583,0.16571 -0.40858,0.16478 -0.40743,0.57382 l 0.82476,2.37012 q 0.40906,-0.001 0.65564,0.40718 l 4.7092,16.34848 q 9.2e-4,0.32723 -0.16201,0.57312 l 0.49478,1.38936 q 3.10466,-1.4814 6.4575,-1.98178 3.35263,-0.58218 6.54323,-0.59125 6.05397,-0.0172 11.62375,2.33944 5.56956,2.27484 9.83543,6.43499 4.26587,4.16014 6.81833,9.96135 2.55223,5.7194 2.57132,12.50951 0.0179,6.38108 -2.58388,12.11512 -2.52025,5.652 -6.84424,9.91837 -4.24218,4.26613 -9.8802,6.73643 -5.63802,2.47029 -11.85561,2.48796 -6.79027,0.0193 -12.68729,-2.33641 -5.89703,-2.35572 -10.24494,-6.59744 -4.26611,-4.24196 -6.73676,-10.0434 -2.47064,-5.80144 -2.48973,-12.59156 -0.0113,-4.00861 1.28619,-8.10277 1.29723,-4.17596 3.5778,-7.78204 2.36216,-3.68813 5.54448,-6.64231 3.18209,-3.03598 6.85827,-4.92804 l -0.49615,-1.88021 q -0.57314,-0.16199 -0.65541,-0.32537 l -0.74365,-2.61578 -33.03753,34.12653 q 1.31288,1.38702 1.72608,2.85841 0.41319,1.4714 0.41687,2.78034 0.005,1.63616 -0.72755,3.11081 -0.65035,1.47442 -1.79247,2.623 -1.14213,1.14857 -2.61264,1.88903 -1.38894,0.65842 -2.86153,0.6626 -0.24543,7e-4 -0.57268,0.002 -0.24543,7e-4 -0.65471,-0.0799 l -0.24106,1.55507 0.90015,0.0792 q 0.16362,-4.7e-4 0.16523,0.57219 0.0832,0.49062 0.0843,0.89967 0.001,0.40904 -0.079,0.98193 0.002,0.57266 -0.16178,0.65493 l -1.14443,0.33049 q -0.16178,0.65494 -0.65171,0.98357 -0.40837,0.24658 -0.98104,0.24821 -1.22716,0.003 -1.63966,-1.22248 l -0.7363,0.002 q -0.16362,4.7e-4 -0.24727,-0.65377 -0.0836,-0.65423 -0.0843,-0.89966 -6.9e-4,-0.24542 -0.003,-0.89989 0.0797,-0.73651 0.32494,-0.81902 l 1.96253,-0.33281 0.4033,-2.04638 -6.46854,-1.94504 q -1.95219,4.0142 -4.97019,7.21333 -2.93621,3.19891 -6.61124,5.50001 -3.59344,2.21906 -7.68075,3.37601 -4.08707,1.23875 -8.17759,1.25037 -7.28113,0.0207 -13.17908,-2.66226 -5.81613,-2.68318 -10.00088,-7.08899 -4.10294,-4.40604 -6.40951,-10.04433 -2.22498,-5.72032 -2.24201,-11.77416 -0.017,-6.05384 2.25825,-11.54153 2.27528,-5.48768 6.35407,-9.67154 4.07879,-4.18386 9.7168,-6.65416 5.71983,-2.47053 12.5101,-2.48982 3.84509,-0.0109 7.61137,1.04188 3.76627,1.05282 6.8792,2.51655 l 7.32544,-13.35573 -2.31255,-7.7653 q -0.24382,0.57335 -0.57105,0.57428 l -0.57268,0.002 q -0.40905,0.001 -0.6554,-0.32537 -0.16477,-0.40858 -0.32977,-0.89897 -0.32748,-0.0809 -0.41044,-0.48969 -0.0832,-0.49062 -0.0843,-0.89967 l -6.21897,-0.47318 q -0.98196,-0.079 -1.5574,-1.0591 -0.57566,-1.06187 -0.57865,-2.12539 -0.65563,-0.40718 -1.14718,-0.65121 -0.49178,-0.32584 -0.49385,-1.06212 -0.16409,-0.16316 -0.5736,-0.32561 -0.32793,-0.2445 -0.32862,-0.48992 -6.9e-4,-0.24543 0.57129,-0.49248 0.57199,-0.24706 1.06285,-0.24845 1.39077,-0.004 4.09236,0.64285 2.70135,0.56499 6.46579,0.96334 2.37341,0.32049 4.99181,0.47667 2.69997,0.0741 4.58231,0.31422 2.12776,0.23938 3.27494,0.89059 1.22877,0.56918 1.23015,1.06003 4.6e-4,0.16362 -0.40767,0.49202 -0.32656,0.24635 -0.8165,0.57497 -0.49017,0.24682 -0.98034,0.49364 -0.4904,0.16502 -0.73583,0.16571 -0.24543,7e-4 -0.90038,-0.16106 -1.14466,0.24868 -2.28839,0.8246 -1.14397,0.49411 -1.79845,0.49597 -0.57267,0.002 -1.96345,0.006 -1.3092,-0.0781 -2.37297,-0.15688 0.57314,0.16199 1.06492,0.48783 0.49155,0.24403 0.57383,0.40742 l 2.22752,6.62022 50.3973,0.59308 -0.90912,-3.26979 q -0.001,-0.40904 0.32586,-0.49178 l -1.40504,-5.06818 q -0.002,-0.73628 1.3069,-0.74 l 7.60859,0.0602 q 0.81811,-0.002 1.3115,0.89618 2.29346,0.97519 4.66849,1.86835 2.3748,0.81134 4.34124,1.86928 1.96644,1.05792 3.19751,2.44518 1.31288,1.38703 1.31863,3.43224 0.005,1.63618 -0.72847,2.78359 -0.65126,1.14719 -1.87589,2.05057 -1.22486,0.82156 -2.94103,1.48091 -1.71618,0.65936 -3.67803,1.2376 -0.40974,-0.24427 -0.73951,-1.14323 -0.24795,-0.8992 -0.33161,-1.55343 0.0811,-0.24566 1.226,-0.41253 1.22647,-0.24891 2.53406,-0.74349 1.38917,-0.57661 2.45017,-1.47953 1.14281,-0.90315 1.13844,-2.4575 -0.002,-0.73628 -0.33069,-1.22621 -0.32885,-0.57173 -0.82087,-0.97938 -0.49223,-0.48945 -0.98378,-0.73349 -0.49179,-0.32584 -0.81949,-0.48852 -2.45708,-0.97474 -4.66802,-1.70474 -2.21119,-0.8118 -4.83212,-1.86787 z m 16.33858,49.77541 q 0.004,1.47256 -1.05641,2.53909 -1.06054,1.06653 -2.53313,1.07072 -1.47259,0.004 -2.62092,-1.05608 -1.06653,-1.06048 -1.07067,-2.53304 -0.004,-1.39075 1.05617,-2.6209 -0.98633,-1.63338 -2.05446,-3.26653 -1.06814,-1.63315 -2.05424,-3.18473 -0.98632,-1.63337 -1.80857,-3.10361 -0.82224,-1.47023 -1.31679,-2.77777 l -3.38137,-9.64389 q -3.26736,1.80909 -5.95997,4.35282 -2.69262,2.54375 -4.6471,5.73986 -1.87289,3.11408 -2.9263,6.71667 -1.05342,3.60261 -1.04238,7.52942 0.0161,5.72661 2.15745,10.7927 2.22291,4.98404 5.99678,8.73654 3.85544,3.67047 8.93366,5.78308 5.07823,2.11261 10.96858,2.09587 5.64492,-0.016 10.62938,-2.15724 5.06626,-2.14143 8.90101,-5.83375 3.8345,-3.77412 6.02936,-8.77072 2.27642,-5.07864 2.26031,-10.80525 -0.0161,-5.7266 -2.23901,-10.71065 -2.22315,-5.06585 -6.07859,-8.73632 -3.77387,-3.7525 -8.8521,-5.86512 -5.07845,-2.19441 -10.80518,-2.17814 -2.86336,0.008 -5.5615,0.58847 -2.69813,0.58033 -5.2315,1.56923 l 2.14548,6.53865 q 0.99001,2.94232 1.81432,5.14883 0.82408,2.1247 1.64702,3.84036 0.90475,1.71542 1.80927,3.34903 0.90428,1.55181 2.13649,3.34811 0.65403,-0.16548 1.14489,-0.16687 1.47259,-0.004 2.53912,1.05631 1.06653,1.06049 1.0709,2.61485 z m -96.78092,-28.52186 q -5.89036,0.0167 -10.95662,2.15817 -4.98469,2.05939 -8.65581,5.75125 -3.67111,3.69184 -5.78415,8.68821 -2.03123,4.99614 -2.01489,10.80455 0.0152,5.39937 2.15629,10.38365 2.22268,4.90224 5.91473,8.65498 3.77387,3.7525 8.77074,6.02896 5.07846,2.19442 10.72338,2.17838 4.09052,-0.0116 7.76901,-1.0856 3.76028,-1.0742 6.9456,-2.96486 3.18509,-1.97248 5.6318,-4.67913 2.52854,-2.7069 4.15532,-6.0657 l -25.63037,-8.35353 q -1.1465,-0.40579 -1.96713,-1.30335 -0.73882,-0.8978 -0.74227,-2.12494 -0.004,-1.39074 0.97504,-2.37524 1.06055,-1.06653 2.77857,-1.07141 0.24543,-6.9e-4 0.4911,0.0804 0.24543,-7e-4 0.57267,-0.002 l 11.39273,-21.63003 q -2.86751,-1.46441 -5.97861,-2.27366 -3.1111,-0.80926 -6.54713,-0.79949 z m 41.96539,27.77771 34.17896,-35.52053 -1.23981,-4.49598 -49.82555,-0.92195 q -0.40906,10e-4 -0.49017,0.24682 4.6e-4,0.16362 9.2e-4,0.32724 l 11.80816,38.82585 1.71849,0.15873 0.80522,-4.5836 -1.55486,-0.1592 q -0.16362,4.6e-4 -0.24681,-0.49016 -10e-4,-0.49085 -0.002,-0.81809 -0.001,-0.40904 0.0793,-0.90013 0.16201,-0.57311 0.32563,-0.57358 l 1.55486,0.1592 q 0.40652,-0.90106 1.47006,-0.90408 0.40905,-10e-4 0.8188,0.2431 0.40973,0.24427 0.57473,0.73466 l 0.98173,-0.003 q 0.40905,-0.001 0.41043,0.48968 0.0832,0.49062 0.0843,0.89966 9.2e-4,0.32724 -0.16132,0.81855 -0.0806,0.40928 -0.48948,0.49225 l -1.55393,0.16803 -0.88612,4.91108 q 0.49133,0.16222 0.81903,0.32491 0.4095,0.16245 0.81971,0.57033 z m -27.71888,-23.72773 q -2.76683,5.24365 -5.69774,10.32415 -2.84933,4.99847 -5.5339,10.40551 l 24.46501,1.23943 q -0.34703,-7.03461 -3.96279,-12.75098 -3.53419,-5.79842 -9.27058,-9.21811 z m 16.99711,22.12201 2.45455,0.0748 -11.47771,-37.68146 -6.26513,12.20738 q 7.04812,4.39768 10.91162,10.93144 3.94507,6.45173 4.37667,14.4678 z m -4.47749,7.86642 -24.55302,-3.44803 q -0.16293,0.24588 -0.48948,0.49224 -0.32678,0.16454 -0.65357,0.32909 l 23.9105,7.70394 q 0.65127,-1.14718 1.05687,-2.37547 0.40537,-1.31009 0.7287,-2.70177 z m 0.79901,-6.79244 -9.2e-4,-0.32724 -25.03767,-1.23781 q 0.32838,0.40812 0.4118,0.98055 0.16501,0.49038 0.24797,0.8992 l 24.1442,3.531 q 0.24037,-1.80048 0.23462,-3.8457 z m 17.12047,7.80504 q -0.006,-2.29064 -1.56682,-4.41325 l -3.91471,4.34702 4.83418,2.60415 q 0.40721,-0.65563 0.48741,-1.22852 0.16178,-0.65493 0.15994,-1.3094 z M 298.881,327.33908 q -0.9006,-0.24287 -2.21026,-0.48457 -1.22807,-0.32374 -2.2098,-0.32095 -0.73629,0.002 -1.47236,0.086 -0.73606,0.0839 -1.55417,0.0862 -0.49086,10e-4 -1.4735,-0.32305 -0.98265,-0.32444 -1.55532,-0.32281 -0.98173,0.003 -1.88026,0.49619 -0.89877,0.4116 -1.79868,0.41415 -0.57267,0.002 -1.47489,-0.81389 -0.90222,-0.81553 -1.63897,-0.97706 0.002,0.81809 0.33161,1.55344 0.32932,0.73534 1.14765,0.81482 l 5.48222,0.31166 0.08,-0.6547 q -4.6e-4,-0.16362 0.89946,-0.16617 0.0813,-0.16385 0.24497,-0.16432 0.16339,-0.0823 0.32701,-0.0827 0.16362,-4.6e-4 0.32747,0.0809 0.24544,-7e-4 0.32771,0.16269 0.16361,-4.7e-4 0.40927,0.0806 0.24566,0.0811 0.24612,0.24472 l 0.16546,0.65401 q 1.06377,0.0788 2.3732,0.23869 1.3092,0.0781 1.96368,0.0762 0.40906,-0.001 1.30804,-0.33095 0.89877,-0.4116 1.63437,-0.65912 z m 16.05021,63.60201 -4.9153,-2.35851 -1.04835,5.40239 q 0.24566,0.0811 0.81834,0.0795 1.5544,-0.004 2.86107,-0.82622 1.38847,-0.82204 2.28424,-2.29715 z m -8.25572,2.55955 1.04835,-5.4024 -5.47992,0.50643 q 0.49684,2.12563 1.80926,3.34904 1.31219,1.1416 2.62231,1.54693 z m 0.30171,-9.08169 -1.07435,-3.84198 q -1.14351,0.65772 -1.79592,1.39586 -0.65265,0.65632 -1.3046,1.55808 l 4.17487,0.88804 z m -5.38615,4.76024 q -0.24359,0.65516 -0.56853,1.47418 -0.32494,0.81902 -0.65057,1.39261 l 4.01239,1.29755 q -0.98403,-0.8153 -1.72263,-1.63129 -0.657,-0.89804 -1.07066,-2.53305 z m 4.22723,-9.5837 -0.16546,-0.654 -2.61817,-0.0744 q 10e-4,0.40904 0.003,1.22713 0.002,0.81809 -0.15879,1.71845 1.3046,-1.55809 2.93897,-2.21721 z m 5.73432,2.68342 1.22279,-1.55785 q -0.49224,-0.48946 -0.9013,-0.4883 l -0.32149,2.04615 z m -2.37435,-0.64773 0.32196,-1.88253 q -0.49087,10e-4 -0.73607,0.0839 l 0.41411,1.79863 z" />
    </g>
  </g>
  <g
     inkscape:groupmode="layer"
     id="layer5"
     inkscape:label="БЛИК"
     transform="translate(7.0710754,40.403567)"
     style="display:none">
    <path
       style="display:inline;fill:#ffb380;fill-opacity:0.48255813;fill-rule:nonzero;stroke:none;stroke-width:2;stroke-linecap:butt;stroke-linejoin:bevel;stroke-miterlimit:4;stroke-dasharray:none;stroke-opacity:1"
       d="M 150,17.064453 A 132.9361,132.9361 0 0 0 82.152344,35.857422 L 196.10938,94.179688 262.13477,221.11523 A 132.9361,132.9361 0 0 0 282.93555,150 132.9361,132.9361 0 0 0 150,17.064453 Z"
       id="circle4273"
       inkscape:connector-curvature="0"
       transform="translate(-7.0710754,-40.403567)" />
  </g>
  <g
     inkscape:label="GEAR"
     id="layer1"
     inkscape:groupmode="layer"
     style="display:inline;opacity:1"
     transform="translate(7.0710754,40.403567)">
    <path
       style="display:inline;fill:#999999;fill-opacity:1;stroke:none;stroke-opacity:1"
       d="m 156.0243,259.33718 c -0.81119,-0.37294 -2.18222,-2.25839 -3.218,-4.4254 -0.99255,-2.07659 -2.37982,-4.39102 -3.08282,-5.14318 -2.56657,-2.74601 -7.63946,-2.43481 -10.46213,0.64182 -1.2233,1.33337 -3.85148,6.62877 -3.85148,7.76019 0,0.79083 -2.92701,1.48164 -4.35606,1.02808 -1.05586,-0.33513 -2.37009,-3.40773 -3.32112,-7.76463 -0.50502,-2.31359 -2.55206,-4.19736 -5.39226,-4.96214 -3.62385,-0.9758 -6.36167,0.53614 -9.56958,5.28474 -1.84378,2.72931 -2.94652,3.7734 -4.13154,3.91182 -2.46233,0.28761 -3.41919,-1.18754 -3.89367,-6.00274 -0.48677,-4.93998 -1.82458,-7.16473 -5.141875,-8.55077 -3.105992,-1.29777 -6.299624,-0.1281 -9.829431,3.60004 -2.052828,2.16818 -3.32174,3.00839 -4.543345,3.00839 -2.717446,0 -3.184206,-1.00145 -3.184206,-6.83181 0,-5.10422 -0.0834,-5.42792 -1.868986,-7.25426 -2.112744,-2.16097 -5.244015,-2.99926 -7.706293,-2.06311 -0.914048,0.34752 -2.943228,1.61022 -4.509305,2.80601 -3.059516,2.33612 -4.839522,2.68215 -6.720788,1.30654 -1.09565,-0.80116 -1.128499,-1.14862 -0.428847,-4.53599 1.14022,-5.52039 0.967808,-8.28764 -0.641524,-10.29681 -0.766175,-0.95652 -1.811878,-1.82034 -2.323792,-1.91959 -0.511913,-0.0993 -1.694017,-0.39285 -2.626903,-0.65244 -1.325433,-0.36883 -2.640697,0.0168 -6.017792,1.76447 -4.9409,2.55692 -5.663269,2.66929 -7.081908,1.10172 -1.347771,-1.48927 -1.295717,-3.09932 0.214079,-6.62153 3.834434,-8.72676 -2.920743,-13.84374 -10.713544,-11.1915 -3.804863,1.45309 -6.169226,1.09541 -6.918052,-1.04656 -0.486195,-4.74174 3.875441,-7.4983 3.980575,-12.10285 0,-2.93343 -1.154349,-4.65592 -4.036923,-6.02379 -1.96203,-0.93104 -2.764623,-0.96457 -6.945602,-0.2901 -4.612643,0.7441 -4.75493,0.72839 -5.869617,-0.6482 -1.638029,-2.02287 -1.447684,-2.90818 1.341499,-6.23955 3.472782,-4.14786 4.320349,-6.38722 3.556494,-9.39659 -0.920464,-3.62633 -3.235286,-4.97108 -9.3427217,-5.42747 -4.6660739,-0.34867 -5.1005673,-0.49973 -5.9836704,-2.08035 -0.9470334,-1.69503 -0.92950425,-1.72657 3.2000286,-5.75763 4.5434942,-4.43514 5.1538624,-5.58899 4.5785959,-8.65542 -0.5820857,-3.1028 -2.9935882,-5.11407 -7.0757645,-5.90143 -1.93413868,-0.37306 -4.116968,-0.80522 -4.8507352,-0.96037 -1.3490621,-0.28523 -2.7379542,-3.03868 -2.2488195,-4.45823 0.1432488,-0.41575 1.7822028,-1.62656 3.6421048,-2.69069 5.8598432,-3.35266 8.0068324,-8.45553 5.2101105,-12.38316 -0.8231688,-1.15604 -2.7212812,-2.31357 -5.5935553,-3.41113 -5.9255814,-1.50856 -5.9334867,-6.23387 -1.3996392,-7.9388 3.91551688,-1.53864 7.9879876,-4.60967 8.239179,-8.686786 0,-2.435113 -2.5542299,-5.42424 -6.3815791,-7.468126 -5.3270069,-2.844749 -5.7332116,-5.976467 -0.9421128,-7.263429 6.1793082,-1.659859 7.9805604,-2.574155 9.5123291,-4.828354 0.8995526,-1.323808 1.5343685,-3.143985 1.5343685,-4.399408 0,-1.841553 -0.6081467,-2.723558 -4.3435066,-6.299431 -2.3889285,-2.286931 -4.34350649,-4.589256 -4.34350649,-5.116272 0,-1.86947 1.84203159,-2.908245 5.16345499,-2.911825 5.0681214,-0.0056 7.4931884,-0.941579 9.3389554,-3.605024 2.749018,-3.966838 2.062737,-6.912958 -2.845264,-12.214289 -1.9774186,-2.135894 -2.2894933,-4.94345 -0.643255,-5.787021 0.597233,-0.306031 2.621617,-0.38432 4.498632,-0.173964 5.02813,0.563496 7.221899,0.02947 9.645111,-2.347795 2.957605,-2.90156 2.937625,-5.731572 -0.07491,-10.612271 -4.006183,-6.490533 -2.417937,-8.525056 5.128515,-6.569578 4.516645,1.170382 7.493462,0.519508 9.718628,-2.124949 2.299576,-2.732891 2.569426,-4.979291 1.009493,-8.4035628 -1.879163,-4.1250221 -2.195382,-6.6694421 -0.979927,-7.884898 1.138477,-1.13847653 2.852015,-0.8177582 7.036463,1.3169885 4.887133,2.4932287 9.764594,1.0443465 11.668229,-3.46612458 0.850642,-2.01550502 0.881896,-2.87023882 0.221922,-6.06890272 -0.867239,-2.315157 -2.254574,-7.3547624 1.561631,-7.7562624 0.434232,0 2.577964,1.170259 4.763846,2.60057 5.909992,3.867154 9.93862,3.3885057 13.0325,-1.548405 1.060218,-1.691796 1.185969,-2.630322 0.85652,-6.392618 -0.316815,-3.618017 -0.203071,-4.592768 0.633544,-5.429383 1.499962,-1.499962 3.280421,-1.247765 5.275431,0.747244 4.070269,4.07027 5.645554,5.058585 8.062951,5.058585 5.696614,-0.404824 7.87051,-4.536559 8.44166,-9.557347 0.38185,-3.727138 0.60439,-4.246088 2.16743,-5.054365 1.70908,-0.883804 1.78628,-0.846531 4.09962,1.97951 1.29676,1.584145 2.92541,3.56618 3.61922,4.40452 1.66545,2.012384 6.08694,2.586317 8.86346,1.150527 2.22875,-1.152531 3.27991,-2.917595 4.75082,-7.977352 0.84557,-2.908655 1.32755,-3.632388 2.6381,-3.96131 1.69673,-0.425856 3.19692,0.211312 3.96318,1.683258 0.25461,0.489104 1.08138,2.247275 1.83726,3.907034 1.07761,2.366212 1.92439,3.267552 3.92204,4.174755 4.45987,2.361948 8.76562,-1.164363 10.95776,-5.40388 2.06626,-4.325904 2.91735,-5.224985 4.64159,-4.903367 0.67094,0.125143 1.43621,0.248902 1.70061,0.275013 0.85468,0.08441 2.10713,3.4988 2.23995,6.106474 0.0393,0.772877 1.02741,2.44823 2.19565,3.723005 1.83978,2.007551 2.4916,2.317764 4.87007,2.317764 3.76924,0 5.55701,-1.124205 8.53183,-5.365093 2.11069,-3.009002 2.85665,-3.632171 4.34786,-3.632171 2.20902,0 2.80546,1.04766 3.26518,5.735396 0.39677,4.045902 2.02768,6.800771 4.90783,8.290153 2.98968,1.546022 5.59068,0.685275 9.66481,-3.198378 3.6035,-3.435025 5.86365,-4.233728 7.46081,-2.636558 0.4614,0.461392 0.74461,2.734603 0.74461,5.976615 0,5.195511 0.0155,5.246603 2.21593,7.321911 2.02558,1.910374 3.72712,2.467447 6.47108,2.118608 0.51191,-0.06508 2.01477,-0.866033 3.33967,-1.779895 6.47799,-4.468239 6.34103,-4.424711 8.47769,-2.69455 2.35124,1.375091 0.82954,3.588011 0.29262,5.867972 -1.33673,5.6762126 -0.82656,7.5562684 2.71683,10.01183892 3.05912,2.11996638 4.84222,2.01537468 9.71537,-0.56988672 3.89818,-2.0680242 4.16607,-2.1236149 5.90367,-1.2250612 2.17937,1.1269911 2.30259,2.57824351 0.54743,6.4470422 -0.68503,1.5099704 -1.29782,3.9473168 -1.36175,5.4163218 -0.0992,2.27928 0.19426,2.991286 2.00136,4.855736 1.74213,1.797424 2.56361,2.183159 4.63301,2.175471 1.38348,-0.005 3.63231,-0.411721 4.99741,-0.903512 5.70208,-2.054249 8.73036,-0.509288 7.0687,3.606283 -0.43532,1.078183 -1.47242,3.006402 -2.30467,4.284938 -2.05686,3.159827 -1.67028,7.321638 0.90056,9.695172 1.68478,1.555485 2.05317,1.62539 7.93205,1.505267 5.17543,-0.105752 6.29413,0.04368 6.9682,0.930752 1.19598,1.573917 1.01555,2.744219 -0.71001,4.605157 -2.92291,3.152225 -4.65255,6.229451 -4.65255,8.27739 0,4.85063 3.82515,7.719957 10.29161,7.719957 7.11699,0 7.83195,2.6531 2.15715,8.004785 -5.21715,4.920088 -5.68282,8.226974 -1.70855,12.133095 1.51852,1.492485 2.95073,2.134933 6.14439,2.756197 2.29038,0.445551 4.47581,1.185405 4.85651,1.644123 1.38187,1.665052 0.35774,3.615529 -3.12609,5.953732 -2.6867,1.825244 -5.53569,4.591283 -5.5845,7.8949 0,2.420642 0.34859,3.505799 1.6064,5.000623 0.88354,1.050011 1.83654,1.909111 2.11779,1.909111 0.28126,0 2.22407,0.76028 4.31736,1.6895 3.5209,1.56295 3.79218,1.8255 3.62184,3.5053 -0.10127,0.9987 -0.60296,2.03612 -1.11488,2.3054 -0.51191,0.26928 -2.28295,1.12773 -3.93564,1.90767 -1.65268,0.77993 -3.80876,2.33363 -4.79128,3.45265 -2.39746,2.73056 -2.23345,6.78081 0.38527,9.51416 0.96158,1.00368 1.96715,1.82486 2.23459,1.82486 0.26745,0 1.76346,0.90025 3.32446,2.00055 2.26664,1.59766 2.80136,2.31617 2.65528,3.56788 -0.1552,1.32979 -0.74719,1.73789 -3.90593,2.69268 -5.81681,1.75824 -7.74489,2.93505 -9.07256,5.53749 -2.15401,4.2222 -1.1588,6.55587 4.9457,11.59724 2.67532,2.2094 3.30616,4.25045 1.72047,5.56646 -0.47033,0.39034 -2.57706,0.85504 -4.68161,1.03267 -5.96934,0.50384 -8.1076,1.72097 -9.69413,5.51809 -1.34593,3.22126 -0.73586,5.20987 2.85837,9.3172 1.71994,1.96547 3.06499,4.11298 3.06499,4.89358 0,2.50877 -1.0424,2.88081 -6.90539,2.46464 -5.91875,-0.42012 -7.57418,0.12378 -9.54869,3.13727 -1.91961,2.92969 -1.68254,5.33553 0.96535,9.79684 2.64197,4.45134 2.99139,6.12257 1.53314,7.33281 -0.92922,0.77118 -2.23628,0.66597 -6.83119,-0.54991 -4.68742,-1.24035 -6.44017,-0.90747 -9.07027,1.72263 -1.999,1.999 -2.409,2.83337 -2.409,4.9024 0,1.37136 0.69533,3.98704 1.54519,5.81262 1.93053,4.14701 1.94125,5.21084 0.0649,6.44029 -1.40167,0.91841 -1.74659,0.86266 -5.67034,-0.91645 -2.29783,-1.04189 -5.1349,-1.89434 -6.3046,-1.89434 -3.42726,0.28464 -5.07511,1.97819 -6.51023,4.48815 -1.20551,2.26993 -1.20793,2.41083 -0.12012,7.02506 1.24647,5.28724 0.88653,6.66241 -1.8288,6.98707 -1.12832,0.13491 -2.72686,-0.58629 -5.15757,-2.32688 -5.17289,-3.70422 -9.60735,-3.42984 -12.4339,0.76935 -1.12605,1.67289 -1.31959,2.79096 -1.2391,7.1586 0.0822,4.45944 -0.0701,5.29705 -1.09963,6.04988 -1.92734,1.40931 -2.79536,1.06305 -6.27836,-2.50442 -4.54325,-4.65345 -8.76603,-5.36157 -12.2006,-2.04594 -2.06031,1.98898 -2.95539,4.40466 -2.95539,7.97617 0,4.20365 -0.78703,5.51452 -3.31085,5.51452 -1.71789,0 -2.28746,-0.41333 -3.74326,-2.71648 -3.04461,-4.8167 -4.94151,-6.20919 -8.45842,-6.20919 -2.52945,0 -3.42056,0.3112 -4.87141,1.7012 -0.97662,0.93566 -2.08353,2.73452 -2.45979,3.99746 -0.37626,1.26295 -0.98537,3.30959 -1.35357,4.54811 -0.92173,3.10041 -2.3843,4.30554 -4.20785,3.46717 z m 29.27443,-31.012 c 7.22011,-5.08692 9.71619,-12.52062 7.46382,-22.22837 -0.33908,-1.46142 0.0331,-1.8445 4.17922,-4.3017 9.12077,-5.40542 20.37423,-14.21446 20.37423,-15.94864 3.84244,1.46557 9.19048,4.38341 13.96127,4.412 5.52366,-0.0557 10.0163,-1.81025 14.01383,-5.67608 11.14326,-14.50207 19.12951,-36.10242 22.86651,-51.34141 1.54191,-6.73534 2.76199,-19.13818 2.39103,-24.30622 -0.69061,-9.621201 -8.24099,-16.764917 -18.14301,-17.165823 l -3.07117,-0.124348 -1.03976,-5.262841 c -1.20276,-6.087915 -4.03885,-14.831177 -6.75135,-20.81347 -1.88878,-4.165621 -2.29951,-5.855376 -1.42394,-5.858118 1.12703,-0.0037 4.47633,-3.706749 6.31081,-6.97767 3.979,-7.094697 3.28622,-13.489815 -2.26884,-20.943432 -3.18757,-4.276995 -14.02105,-15.552782 -18.483,-19.237614 -12.27284,-10.135356 -25.1655,-17.4417672 -39.38628,-22.3206483 -4.88933,-1.6774377 -6.53028,-1.9708847 -9.62986,-1.7220827 -7.8817,0.632669 -14.56223,6.12602 -17.22854,14.1669057 -0.28087,0.8470459 -0.94711,0.902438 -4.88365,0.4060372 -4.77149,-0.6016873 -24.25113,-0.2356973 -26.11219,0.4906053 -0.80872,0.3156116 -1.23514,-0.020663 -1.71063,-1.3490435 -3.00266,-8.388509 -9.887,-13.4265117 -18.30915,-13.3987567 -3.53509,0.01167 -5.44064,0.447146 -10.238272,2.3398474 C 84.976032,-3.0319926 75.215777,2.3632183 64.790149,10.046007 54.247393,17.813401 40.356958,33.39145 38.261601,39.797642 c -2.172628,6.642432 0.129765,14.404999 5.679582,19.14884 l 2.896895,2.47619 -1.68649,3.643104 c -2.753957,5.949009 -5.00954,12.519816 -6.7968,19.799968 l -1.681502,6.849356 -4.163779,0.655634 c -2.290082,0.360604 -5.211705,1.152909 -6.492493,1.760684 -3.591683,1.704367 -7.683118,6.247112 -9.180349,10.193022 -1.20219,3.16834 -1.288086,4.29979 -0.970414,12.78351 0.413297,11.03768 1.535727,18.14018 4.487332,28.39483 2.399062,8.335 5.742358,16.58632 9.991003,24.658 6.664981,14.5534 19.681729,27.58922 34.632961,16.14189 0.665388,-1.07662 1.398653,-0.72141 4.60176,2.22915 4.939677,4.55022 13.808076,11.05743 18.624125,13.66549 3.673285,1.98922 4.374829,2.61422 4.088319,3.64228 -1.287272,4.61894 -1.526364,7.61367 -0.872989,10.93471 12.609628,26.69742 74.185148,21.89814 93.879968,11.55088 z M 73.920262,216.64731 c 6.458186,-3.93718 7.299381,-11.49444 1.728623,-15.52988 -1.930242,-1.39825 -3.146976,-1.7931 -5.525512,-1.7931 -4.435463,0.20532 -8.524689,2.9261 -9.536622,7.19871 -0.80155,4.27262 1.256664,8.66458 5.016757,10.70511 2.024856,1.09885 6.01912,0.81989 8.316754,-0.58084 z M 224.23395,210.4221 c 0.67607,-2.61409 0.60972,-3.1266 -0.76181,-5.88435 -1.77766,-3.57435 -4.4298,-5.31279 -8.17092,-5.35593 -5.14019,-0.0593 -9.12503,3.5272 -9.61788,8.65636 -0.59898,5.92132 4.65761,10.06993 9.28038,10.10118 4.33965,-0.29754 8.2028,-3.81629 9.27023,-7.51726 z M 30.340348,79.696754 c 3.978782,-2.14398 6.289633,-7.123115 5.040732,-10.86115 -2.220512,-6.646167 -10.851432,-8.78159 -15.738963,-3.894059 -4.128191,5.369851 -2.917923,12.316925 2.473702,14.985111 2.606948,1.135063 5.860203,1.044129 8.224529,-0.229902 z M 264.03951,79.170811 c 2.78548,-1.957479 5.25351,-5.104321 5.38942,-8.567083 0.0171,-4.568488 -4.69942,-9.030616 -9.54539,-9.030616 -2.50824,0 -5.81454,1.756241 -7.52289,3.996002 -2.20757,2.89427 -2.35798,8.001074 -0.31995,10.863222 2.49232,3.50014 8.04039,4.766371 11.99881,2.738475 z M 146.08615,-4.2250617 c 2.66626,-0.7405058 5.76277,-4.1421603 6.32371,-6.9468863 0.20714,-1.035703 0.0868,-2.959548 -0.26751,-4.275209 -2.26326,-8.405119 -13.87312,-8.863924 -17.48834,-0.69112 -1.96465,4.441434 -0.46438,8.5938392 4.11358,11.3854544 2.16676,1.3212823 3.98845,1.4526486 7.31856,0.5277609 z"
       id="path6546"
       inkscape:connector-curvature="0"
       sodipodi:nodetypes="cssssssssssssssssssssssssccccssssssssssscsscccsssssscssssssssssssccsssssccssssssssccsscssssssssssssccsssssscsssssssssssssccsssssssssssssssssssssssssssssccssssssssssssssssccssccccscsscsssssssssssccscsscssssssccsssccssccsscsscccssccsccssscssssss" />
    <flowRoot
       xml:space="preserve"
       id="flowRoot3390"
       style="display:inline;opacity:1;font-style:normal;font-weight:normal;font-size:11.25px;line-height:125%;font-family:sans-serif;letter-spacing:0px;word-spacing:0px;fill:#2ad4ff;fill-opacity:1;stroke:none;stroke-width:0.5;stroke-linecap:butt;stroke-linejoin:miter;stroke-miterlimit:4;stroke-dasharray:none;stroke-opacity:1;"
       transform="translate(64.353734,-156.96222)"><flowRegion
         id="flowRegion3392"><rect
           id="rect3394"
           width="165.71428"
           height="41.785713"
           x="42.857143"
           y="171.07143"
           style="font-size:11.25px;fill:#2ad4ff;fill-opacity:1;stroke:none;stroke-width:0.5;stroke-miterlimit:4;stroke-dasharray:none;stroke-opacity:1;" /></flowRegion><flowPara
         id="flowPara3396"
         style="font-style:normal;font-variant:normal;font-weight:normal;font-stretch:normal;font-size:17.5px;font-family:Coda;-inkscape-font-specification:Coda;fill:#2ad4ff;fill-opacity:1;stroke:none;stroke-width:0.5;stroke-miterlimit:4;stroke-dasharray:none;stroke-opacity:1;">INGRESS</flowPara></flowRoot>  </g>
</svg>
